<?xml version="1.0" standalone="no"?>
<!DOCTYPE svg PUBLIC "-//W3C//DTD SVG 20010904//EN"
 "http://www.w3.org/TR/2001/REC-SVG-20010904/DTD/svg10.dtd">
<svg version="1.0" xmlns="http://www.w3.org/2000/svg"
 width="50.000000pt" height="50.000000pt" viewBox="0 0 50.000000 50.000000"
 preserveAspectRatio="xMidYMid meet">

<g transform="translate(0.000000,50.000000) scale(0.100000,-0.100000)"
fill="#000000" stroke="none">
<path d="M182 485 c-18 -8 -31 -19 -27 -25 4 -6 16 -5 35 5 36 19 87 19 120 0
30 -17 40 -18 40 -4 0 15 -64 39 -102 39 -18 -1 -48 -7 -66 -15z"/>
<path d="M206 437 c-14 -10 -8 -12 44 -12 52 0 58 2 44 12 -10 7 -30 13 -44
13 -14 0 -34 -6 -44 -13z"/>
<path d="M135 377 c-3 -7 -4 -94 -3 -192 l3 -180 115 0 115 0 0 190 0 190
-113 3 c-86 2 -114 0 -117 -11z m215 -172 l0 -125 -100 0 -100 0 0 125 0 125
100 0 100 0 0 -125z m-60 -165 c0 -5 -18 -10 -40 -10 -22 0 -40 5 -40 10 0 6
18 10 40 10 22 0 40 -4 40 -10z"/>
</g>
</svg>
