<?xml version="1.0" standalone="no"?>
<!DOCTYPE svg PUBLIC "-//W3C//DTD SVG 20010904//EN"
 "http://www.w3.org/TR/2001/REC-SVG-20010904/DTD/svg10.dtd">
<svg version="1.0" xmlns="http://www.w3.org/2000/svg"
 width="24.000000pt" height="24.000000pt" viewBox="0 0 24.000000 24.000000"
 preserveAspectRatio="xMidYMid meet">

<g transform="translate(0.000000,24.000000) scale(0.100000,-0.100000)"
fill="#000000" stroke="none">
<path d="M14 196 c-3 -7 -4 -42 -2 -77 l3 -64 33 -3 c17 -2 32 -7 32 -13 0 -5
11 -9 25 -9 18 0 25 5 25 20 0 17 -7 20 -50 20 l-50 0 0 60 0 60 89 0 c62 0
91 -4 94 -12 2 -7 8 -10 12 -6 4 4 5 14 2 23 -9 21 -205 22 -213 1z"/>
<path d="M166 155 c5 -11 2 -13 -11 -9 -15 6 -16 4 -6 -14 8 -15 8 -21 -1 -24
-9 -3 -9 -14 -2 -39 8 -27 15 -34 34 -34 19 0 26 7 34 33 7 26 6 36 -4 42 -11
7 -11 11 1 26 12 16 12 17 -4 11 -11 -4 -20 -1 -23 8 -4 8 -10 15 -15 15 -4 0
-6 -7 -3 -15z m34 -72 c0 -5 -5 -15 -10 -23 -9 -13 -11 -13 -20 0 -15 22 -12
30 10 30 11 0 20 -3 20 -7z"/>
</g>
</svg>
