<?xml version="1.0" standalone="no"?>
<!DOCTYPE svg PUBLIC "-//W3C//DTD SVG 20010904//EN"
 "http://www.w3.org/TR/2001/REC-SVG-20010904/DTD/svg10.dtd">
<svg version="1.0" xmlns="http://www.w3.org/2000/svg"
 width="64.000000pt" height="64.000000pt" viewBox="0 0 64.000000 64.000000"
 preserveAspectRatio="xMidYMid meet">

<g transform="translate(0.000000,64.000000) scale(0.100000,-0.100000)"
fill="#000000" stroke="none">
<path d="M463 596 c-23 -20 -28 -32 -28 -71 0 -39 5 -51 28 -71 64 -55 167
-11 167 71 0 82 -103 126 -167 71z m77 -41 c0 -8 6 -15 14 -15 24 0 30 -21 7
-27 -12 -3 -21 -12 -21 -19 0 -19 -19 -18 -26 1 -4 8 -12 15 -20 15 -8 0 -14
7 -14 15 0 8 6 15 14 15 8 0 16 7 20 15 3 8 10 15 16 15 5 0 10 -7 10 -15z"/>
<path d="M34 519 c-17 -19 -19 -38 -19 -201 0 -237 -23 -218 265 -218 275 0
264 -6 268 137 3 92 -7 137 -25 119 -4 -4 -10 -56 -13 -114 l-5 -107 -225 0
-225 0 0 185 0 185 158 3 c130 2 157 5 157 17 0 13 -25 15 -158 15 -149 0
-160 -1 -178 -21z"/>
<path d="M85 410 c-9 -15 45 -72 106 -111 49 -31 112 -39 152 -18 40 21 107
80 107 95 0 20 -7 18 -53 -20 -57 -45 -80 -56 -120 -56 -37 0 -90 31 -148 87
-25 24 -39 31 -44 23z"/>
</g>
</svg>
